<svg width="24" height="24" viewBox="0 0 24 24" fill="none" xmlns="http://www.w3.org/2000/svg">
<path d="M8 19H7C4.5 19 3 17 3 15C3 13 4.5 11 7 11C8 11 8.5 11.5 8.5 11.5M16 19H17C19.5 19 21 17 21 15C21 13 19.5 11 17 11C16 11 15.5 11.5 15.5 11.5" stroke="#365A46" stroke-width="2" stroke-linecap="round" stroke-linejoin="round"/>
<path d="M7 11V10C7 7.5 9 5 12 5C15 5 17 7.5 17 10V11" stroke="#365A46" stroke-width="2" stroke-linecap="round" stroke-linejoin="round"/>
<path d="M12 20V14" stroke="#365A46" stroke-width="2" stroke-linecap="round" stroke-linejoin="round"/>
<path d="M14 15L12 13L10 15" stroke="#365A46" stroke-width="2" stroke-linecap="round" stroke-linejoin="round"/>
</svg>
