<?xml version="1.0" encoding="UTF-8"?><svg id="reverse" xmlns="http://www.w3.org/2000/svg" viewBox="0 0 400 400"><defs><style>.cls-1{fill:#fff;}</style></defs><path class="cls-1" d="M200,400C89.71965,400,0,310.28024,0,199.99976S89.71965,0,200,0s200,89.71976,200,199.99976-89.71965,200.00024-200,200.00024ZM200,10.81103C95.68101,10.81103,10.81102,95.68065,10.81102,199.99976s84.86999,189.18921,189.18898,189.18921,189.18898-84.87009,189.18898-189.18921S304.31899,10.81103,200,10.81103Z"/><path id="L_-_new_-_rounded_bottom_x2C__rounded_windows_x2C__fixed_corner_bit" class="cls-1" d="M323.52636,262.52751l-2.81168.54074c-.55611.10815-1.00417.52519-1.17408,1.06593-1.83824,6.16381-4.3565,11.78698-7.55419,16.88486-.4788.75695-.97324,1.51389-1.48297,2.25547-4.07834,5.91659-9.12993,11.07633-15.17004,15.47902-12.29689,9.71697-30.75759,13.77985-48.09041,13.85708-15.94273-.63456-25.98689.20989-25.78294-18.92403V108.32366c0-6.53455.54065-11.38531,1.6375-14.53671.6488-1.9001,1.71473-3.44492,3.16686-4.63446,1.02208-.82144,2.15251-1.43101,3.38316-1.9001,3.01242-1.09686,7.52326-1.69936,13.5018-1.79204,1.74132.01358,2.09433-2.5323.43259-2.99695l-22.23006-6.6427-39.50103-11.94142c-.61797-.18537-1.26676-.17-1.86927.03083l-63.43027,21.1795c-.63333.2163-1.05047.80334-1.05047,1.4676v228.3385c0,1.00615.94649,1.74379,1.92217,1.49802l10.16494-2.56052c.6864-.1729,1.16747-.79018,1.16747-1.49802V99.81685c0-1.3461.87153-2.53727,2.15449-2.94469l46.6322-14.80851c1.54404-.49032,3.11919.66214,3.11919,2.28216v58.36554l.24722,195.04887c0,.97324.89602,1.69936,1.8538,1.51389l141.39724-28.91897c.71056-.13908,1.23593-.77241,1.23593-1.51389v-44.7698c0-.98742-.89952-1.73043-1.86917-1.54394Z"/><path id="cloud_2_-_original_-_new_position" class="cls-1" d="M320.92712,111.90769c-1.54482,0-3.0433.20083-4.46453.55614-.71063-8.06396-7.47692-14.39771-15.72627-14.39771-1.29764,0-2.54894.15448-3.73846.448-2.51806-9.28436-11.01457-16.12791-21.10223-16.12791s-18.30612,6.61183-20.97865,15.67991h-.27806c-4.88163,0-9.23801,2.17819-12.18862,5.60769-2.90427-1.43668-6.16384-2.23999-9.62422-2.23999-.66426,0-1.29764.04634-1.93102.10814-.10814,1.62206-.16993,3.3986-.16993,5.37597v38.54324h102.77681c3.50675-2.65709,5.66948-6.53458,5.90122-12.06504.41711-10.27305-7.09071-21.48843-18.46058-21.48843h-.01546Z"/><path id="cloud_1_-_original_-_new_position" class="cls-1" d="M88.35842,139.71444c-9.62422,0-17.5028,7.44603-18.21342,16.86942-4.60356,1.08137-8.31113,4.44907-9.87139,8.85182-1.2822-.49434-2.67254-.77241-4.14012-.77241-6.39555,0-11.58614,5.19059-11.58614,11.58614,0,2.91971,1.08137,5.5768,2.85792,7.60051h58.82672v-29.61418c-1.7302-8.29568-9.06809-14.53675-17.87356-14.53675v.01545Z"/><g id="windows_-_new_-_rounded"><path class="cls-1" d="M146.7337,126.45989l-6.59245,1.36202c-1.05447.21786-2.04312-.58742-2.04312-1.66415v-13.43052c0-.77421.52332-1.45055,1.27274-1.64489l6.59245-1.70957c1.07607-.27905,2.12586.53323,2.12586,1.64489v13.77807c0,.80598-.56617,1.50108-1.35548,1.66415Z"/><path class="cls-1" d="M168.71697,121.91807l-7.94811,1.64211c-1.05447.21786-2.04312-.58742-2.04312-1.66415v-14.51798c0-.77421.52332-1.45055,1.27274-1.64489l7.94811-2.06112c1.07607-.27905,2.12586.53323,2.12586,1.64489v14.937c0,.80598-.56617,1.50108-1.35548,1.66415Z"/><path class="cls-1" d="M146.56092,161.05115l-6.59245.66693c-1.00102.10127-1.87034-.68454-1.87034-1.69067v-13.49394c0-.8387.6119-1.55197,1.44085-1.67953l6.59245-1.01448c1.02939-.15841,1.95776.63803,1.95776,1.67953v13.84149c0,.87227-.66042,1.60288-1.52826,1.69067Z"/><path class="cls-1" d="M168.54419,158.82719l-7.94811.80408c-1.00102.10127-1.87034-.68454-1.87034-1.69067v-14.5814c0-.8387.6119-1.55197,1.44085-1.67953l7.94811-1.22309c1.02939-.15841,1.95776.63803,1.95776,1.67953v15.00042c0,.87227-.66042,1.60288-1.52826,1.69067Z"/><path class="cls-1" d="M146.38262,195.60596l-6.59245-.02816c-.93566-.004-1.69204-.76362-1.69204-1.69929v-13.52061c0-.90653.7116-1.65344,1.61707-1.69731l6.59245-.31939c.96965-.04698,1.78153.72652,1.78153,1.69731v13.86815c0,.94133-.76523,1.70331-1.70656,1.69929Z"/><path class="cls-1" d="M168.36589,195.69986l-7.94811-.03395c-.93566-.004-1.69204-.76362-1.69204-1.69929v-14.60807c0-.90653.7116-1.65344,1.61707-1.69731l7.94811-.38506c.96965-.04698,1.78153.72652,1.78153,1.69731v15.02709c0,.94133-.76523,1.70331-1.70656,1.69929Z"/><path class="cls-1" d="M146.20457,230.12319l-6.59245-.72325c-.86161-.09453-1.51398-.82239-1.51398-1.68917v-13.50966c0-.9765.82107-1.75211,1.79599-1.69655l6.59245.37571c.89948.05126,1.60261.79561,1.60261,1.69655v13.85721c0,1.01186-.87879,1.79951-1.88462,1.68917Z"/><path class="cls-1" d="M168.18783,232.53495l-7.94811-.87198c-.86161-.09453-1.51398-.82239-1.51398-1.68917v-14.59713c0-.9765.82107-1.75211,1.79599-1.69655l7.94811.45297c.89948.05126,1.60261.79561,1.60261,1.69655v15.01614c0,1.01186-.87879,1.79951-1.88462,1.68917Z"/><path class="cls-1" d="M146.03246,264.60415l-6.59245-1.41834c-.78285-.16843-1.34188-.86053-1.34188-1.66129v-13.46146c0-1.04723.93806-1.84522,1.97174-1.67732l6.59245,1.0708c.82256.13361,1.42686.84398,1.42686,1.67732v13.80901c0,1.08242-.99851,1.88896-2.05672,1.66129Z"/><path class="cls-1" d="M168.01573,269.33378l-7.94811-1.71001c-.78285-.16843-1.34188-.86053-1.34188-1.66129v-14.54893c0-1.04723.93806-1.84522,1.97174-1.67732l7.94811,1.291c.82256.13361,1.42686.84398,1.42686,1.67732v14.96794c0,1.08242-.99851,1.88896-2.05672,1.66129Z"/></g></svg>