<?xml version="1.0" encoding="UTF-8"?><svg id="champagne" xmlns="http://www.w3.org/2000/svg" viewBox="0 0 400 241.26613"><defs><style>.cls-1{fill:#f9efc2;}</style></defs><path class="cls-1" d="M200.46803,149.56191c-2.46173,0-4.15247-.58162-5.07223-1.73132s-1.36611-3.31385-1.36611-6.49246v-21.58741c0-4.61235.08115-8.50782.24346-11.68641v-2.62404c0-.3111-.20288-.6763-.59514-1.06855-.39224-.39225-.79803-.59514-1.19029-.59514l-.35167.12173-18.00303,8.3455c-.24346.08115-.28405.33815-.12173.77098.1623.43283.39224.64925.71687.64925h.12173c1.90716-.87919,3.38149-1.31202,4.40945-1.31202,1.27144,0,2.1912.59514,2.74576,1.78542s.8386,3.13802.8386,5.84321v21.34394c0,3.17859-.43284,5.34274-1.31202,6.49246-.87918,1.1497-2.54288,1.73132-5.0046,1.73132-.24346,0-.35167.24347-.35167.71687s.12173.71687.35167.71687c2.06947,0,3.69258-.04058,4.88287-.12173l7.03349-.12173,7.15522.12173c1.19029.08115,2.82692.12173,4.88287.12173.24346,0,.35167-.24347.35167-.71687s-.12173-.71687-.35167-.71687l-.0135.01354Z"/><path class="cls-1" d="M255.9244,104.96687c-1.98832,0-3.46264.04058-4.40945.12173l-4.77466.12173-7.15522-.12173c-1.10914-.08115-2.74576-.12173-4.88287-.12173-.1623,0-.24346.24347-.24346.71687s.08115.71687.24346.71687c2.38056,0,4.24715.55457,5.59974,1.6637s2.02889,2.66461,2.02889,4.65293c0,1.19028-.32463,2.62404-.96035,4.28772l-7.89915,19.12568-13.32306-25.09062c-.39224-.79803-.59514-1.43375-.59514-1.90716,0-1.826,2.29941-2.74576,6.91176-2.74576.24346,0,.35167-.24347.35167-.71687s-.12173-.71687-.35167-.71687c-2.38056,0-4.24715.04058-5.59974.12173l-9.18411.12173-7.99384-.12173c-.94681-.08115-2.15062-.12173-3.57085-.12173-.24346,0-.35167.24347-.35167.71687s.12173.71687.35167.71687c1.82601,0,3.38149.54104,4.65293,1.60959,1.27144,1.06855,2.74576,3.35444,4.40945,6.85765l18.24651,36.12779c.24346.39225.6763.59514,1.31202.59514.79803,0,1.23087-.20289,1.31202-.59514l14.66212-33.85544c1.58253-3.652,3.27328-6.35719,5.07223-8.10204,1.78543-1.74485,3.82784-2.62404,6.14077-2.62404.1623,0,.24346-.24347.24346-.71687s-.08115-.71687-.24346-.71688Z"/><path class="cls-1" d="M282.98983,126.01324c-1.47432-.9874-3.71963-2.36704-6.73591-4.11189-3.09743-1.826-5.46447-3.57085-7.10112-5.24806-1.62311-1.6637-2.44819-3.652-2.44819-5.96495,0-3.09744,1.62311-4.65293,4.88287-4.65293,2.15062,0,4.23363.63572,6.26252,1.90716s3.67906,2.79987,4.9505,4.58529c1.27144,1.78542,1.90716,3.43559,1.90716,4.9505,0,.24347.24346.35168.71687.35168s.71687-.12173.71687-.35168l.12173-5.96495c.08115-1.10913.12173-2.66461.12173-4.65293,0-.63572-.35167-1.06855-1.06854-1.31202-1.82601-.71687-3.47618-1.19028-4.9505-1.43375s-3.12449-.35168-4.9505-.35168c-4.85581,0-8.94065,1.0956-12.28156,3.27328-3.34091,2.19121-5.0046,5.62679-5.0046,10.30677,0,2.54287.55457,4.6935,1.66369,6.43835,1.10914,1.74485,2.38056,3.09744,3.81433,4.05778,1.43377.96034,3.53027,2.19121,6.31661,3.69259,3.25976,1.826,5.72147,3.59791,7.39869,5.30217,1.66369,1.70427,2.50231,4.03074,2.50231,6.97939,0,1.98832-.50045,3.50321-1.48786,4.53119-1.00093,1.02797-2.32646,1.55549-3.99015,1.55549-3.01628,0-6.00552-1.39317-8.94065-4.17951-2.94865-2.78634-5.04517-6.15431-6.31661-10.13093-.08115-.16232-.33815-.21642-.77099-.17583-.43284.04058-.64924.17583-.64924.4193l.24346,11.80814c0,.47341.24346.96034.71687,1.43375,3.89548,2.15062,8.02087,3.21917,12.40329,3.21917,3.73315,0,6.95233-.7304,9.65752-2.20473s4.73408-3.39501,6.08667-5.7891c1.35259-2.38057,2.02889-4.92344,2.02889-7.62863,0-2.54287-.59514-4.70703-1.78543-6.49246s-2.52934-3.17859-3.99015-4.17951l-.04058.01352Z"/><circle id="i_dot_-_new_-_round_-_new_position" class="cls-1" cx="187.7807" cy="89.47654" r="7.08759"/><path class="cls-1" d="M337.60744,143.62399c-.17271-.32362-.45785-.49104-.50805-.50045-.03583-.00669-.27623.12169-.27623.12169-2.46181,1.19029-4.45009,2.04243-5.96499,2.56996-1.5149.51399-3.34103.77099-5.47791.77099-6.04622,0-10.67215-1.98836-13.89117-5.9649-3.21935-3.97663-4.82885-9.4547-4.82885-16.44759,0-.96037.04062-1.96128.09477-2.85395h28.99954c.87905,0,1.31198-1.23091,1.31198-3.69264,0-4.69346-1.35259-8.14256-4.05778-10.37438-2.70519-2.21827-6.5196-3.34087-11.4429-3.34087s-9.79277,1.13613-13.89117,3.39503c-4.0984,2.27235-7.2905,5.34268-9.60355,9.23816-2.31288,3.89548-3.46256,8.14264-3.46256,12.75496,0,4.13894.96045,7.9668,2.86749,11.51059,1.9072,3.54379,4.69346,6.35721,8.34557,8.46725,3.65194,2.11004,7.99388,3.16511,12.99841,3.16511,3.57087,0,6.87129-.63576,9.90108-1.9072,3.01626-1.27144,6.00544-3.34087,8.94046-6.19491.16247-.1623.13539-.39222-.05416-.71683ZM320.20137,107.91827c5.16023.46594,7.34978,5.27457,7.34978,10.19944h-20.46823c1.05176-6.96119,7.70873-10.68792,13.11845-10.19944Z"/><path class="cls-1" d="M385.17824,143.62399c-.17271-.32362-.45785-.49104-.50805-.50045-.03583-.00669-.27623.12169-.27623.12169-2.46181,1.19029-4.45009,2.04243-5.96499,2.56996-1.5149.51399-3.34103.77099-5.47791.77099-6.04622,0-10.67215-1.98836-13.89117-5.9649-3.21935-3.97663-4.82885-9.4547-4.82885-16.44759,0-.96037.04062-1.96128.09477-2.85395h28.99954c.87905,0,1.31198-1.23091,1.31198-3.69264,0-4.69346-1.35259-8.14256-4.05778-10.37438-2.70519-2.21827-6.5196-3.34087-11.4429-3.34087s-9.79277,1.13613-13.89117,3.39503c-4.0984,2.27235-7.2905,5.34268-9.60355,9.23816-2.31288,3.89548-3.46256,8.14264-3.46256,12.75496,0,4.13894.96045,7.9668,2.86749,11.51059,1.9072,3.54379,4.69346,6.35721,8.34557,8.46725,3.65194,2.11004,7.99388,3.16511,12.99841,3.16511,3.57087,0,6.87129-.63576,9.90108-1.9072,3.01626-1.27144,6.00544-3.34087,8.94046-6.19491.16247-.1623.13539-.39222-.05416-.71683ZM367.77218,107.91827c5.16023.46594,7.34978,5.27457,7.34978,10.19944h-20.46823c1.05176-6.96119,7.70873-10.68792,13.11845-10.19944Z"/><g id="R_ball"><path class="cls-1" d="M396.32807,102.44131c.36017-.33246.54058-.77575.54058-1.32986,0-.57279-.18041-1.02574-.54058-1.35821s-.85436-.4987-1.48256-.4987h-2.71577v5.95795h1.41362v-2.27249h.4929l1.39107,2.27249h1.69067l-1.57599-2.37566c.30331-.08062.57489-.20062.78606-.39553ZM393.54335,100.52899h1.13592c.22164,0,.40592.04639.55411.13853.14755.09278.22164.25901.22164.49934s-.0741.41107-.22164.51223c-.14819.1018-.33246.1527-.55411.1527h-1.13592v-1.3028Z"/><path class="cls-1" d="M399.27902,99.33766c-.48001-.8492-1.14043-1.51929-1.98126-2.00896-.84083-.48903-1.80601-.73452-2.89554-.73452-1.10822,0-2.08757.24548-2.93742.73452-.84985.48968-1.51478,1.15976-1.99479,2.00896-.48066.84985-.72098,1.8292-.72098,2.93742,0,1.09018.24033,2.06437.72098,2.92324.48001.85951,1.14494,1.53411,1.99479,2.02314.84985.48968,1.8292.73452,2.93742.73452,1.08953,0,2.05471-.24484,2.89554-.73452.84083-.48903,1.50125-1.16363,1.98126-2.02314.48066-.85887.72098-1.83307.72098-2.92324,0-1.10822-.24033-2.08757-.72098-2.93742ZM398.26809,104.64421c-.36017.69264-.86853,1.23321-1.52444,1.62109s-1.43617.58181-2.34143.58181-1.69518-.19394-2.36913-.58181c-.67459-.38788-1.19649-.92845-1.56568-1.62109-.36983-.69264-.55411-1.48256-.55411-2.36913s.18427-1.67199.55411-2.3556c.36919-.68297.89108-1.22355,1.56568-1.62109.67395-.3969,1.46388-.59534,2.36913-.59534s1.68552.19845,2.34143.59534c.65591.39754,1.16427.93812,1.52444,1.62109.36017.68361.53993,1.46903.53993,2.3556s-.17976,1.6765-.53993,2.36913Z"/></g><path id="L_-_new_-_rounded_bottom_x2C__rounded_windows_x2C__fixed_corner_bit" class="cls-1" d="M244.26513,174.04383l-2.46181.47346c-.48691.09469-.87922.45984-1.02798.93329-1.60951,5.39684-3.81441,10.3203-6.61421,14.78385-.41922.66276-.85214,1.32552-1.29844,1.97482-3.57087,5.18038-7.99388,9.69808-13.2824,13.55294-10.76676,8.50787-26.93037,12.0652-42.10643,12.13281-13.95895-.5556-22.75329.18377-22.57472-16.56928V39.02785c0-5.72145.47338-9.96861,1.43375-12.72788.56807-1.66366,1.50136-3.01626,2.7728-4.05778.8949-.71923,1.88467-1.25295,2.96218-1.66366,2.63758-.96037,6.58713-1.4879,11.82174-1.56906,1.52464.01189,1.83373-2.2172.37877-2.62404l-19.46394-5.81614L120.21859.11376c-.54107-.1623-1.10914-.14885-1.63667.027l-55.53752,18.5441c-.55453.18938-.91975.70338-.91975,1.28498v199.92592c0,.88096.82872,1.52681,1.68299,1.31162l8.90009-2.24191c.60099-.15139,1.0222-.69186,1.0222-1.31162V31.57955c0-1.1786.76308-2.22156,1.8864-2.57828l40.82967-12.96586c1.35191-.42931,2.73107.57975,2.73107,1.99819v51.103l.21646,170.77858c0,.85214.78453,1.4879,1.62313,1.32552l123.80292-25.32053c.62214-.12177,1.08214-.6763,1.08214-1.32552v-39.19901c0-.86455-.78759-1.51511-1.63659-1.35183Z"/><path id="cloud_2_-_original_-_new_position" class="cls-1" d="M241.98932,42.16591c-1.35259,0-2.66461.17584-3.909.48693-.6222-7.06054-6.54655-12.60618-13.76942-12.60618-1.13617,0-2.23177.13526-3.27328.39225-2.20474-8.12909-9.644-14.12108-18.47644-14.12108s-16.02825,5.7891-18.36823,13.72883h-.24346c-4.2742,0-8.08851,1.90716-10.67197,4.90992-2.54288-1.25791-5.39686-1.96126-8.42666-1.96126-.58161,0-1.13617.04058-1.69074.09468-.09468,1.42022-.14879,2.97571-.14879,4.70703v33.74723h89.9881c3.0704-2.32646,4.96402-5.72147,5.16692-10.56376.36521-8.99475-6.2084-18.81459-16.1635-18.81459h-.01354Z"/><path id="cloud_1_-_original_-_new_position" class="cls-1" d="M38.35958,66.51261c-8.42666,0-15.32489,6.5195-15.94709,14.77033-4.03073.94681-7.27696,3.89547-8.64308,7.75037-1.12265-.43283-2.33999-.6763-3.62495-.6763-5.59974,0-10.14446,4.54472-10.14446,10.14446,0,2.5564.94682,4.88287,2.5023,6.65476h51.5068v-25.92923c-1.5149-7.26344-7.93973-12.72791-15.64952-12.72791v.01352Z"/><g id="windows_-_new_-_rounded"><path class="cls-1" d="M89.47112,54.90735l-5.77214,1.19255c-.92326.19075-1.78889-.51432-1.78889-1.45708v-11.75934c0-.67788.4582-1.27006,1.11437-1.44022l5.77214-1.49685c.94217-.24433,1.86133.46688,1.86133,1.44022v12.06364c0,.70569-.49572,1.3143-1.18682,1.45708Z"/><path class="cls-1" d="M108.71896,50.93068l-6.95911,1.43778c-.92326.19075-1.78889-.51432-1.78889-1.45708v-12.71148c0-.67788.4582-1.27006,1.11437-1.44022l6.95911-1.80465c.94217-.24433,1.86133.46688,1.86133,1.44022v13.07836c0,.70569-.49572,1.3143-1.18682,1.45708Z"/><path class="cls-1" d="M89.31983,85.19436l-5.77214.58394c-.87646.08867-1.63761-.59937-1.63761-1.4803v-11.81486c0-.73434.53576-1.35885,1.26156-1.47054l5.77214-.88824c.9013-.1387,1.71415.55864,1.71415,1.47054v12.11917c0,.76373-.57825,1.40343-1.3381,1.4803Z"/><path class="cls-1" d="M108.56768,83.24713l-6.95911.70403c-.87646.08867-1.63761-.59937-1.63761-1.4803v-12.76701c0-.73434.53576-1.35885,1.26156-1.47054l6.95911-1.0709c.9013-.1387,1.71415.55864,1.71415,1.47054v13.13389c0,.76373-.57825,1.40343-1.3381,1.4803Z"/><path class="cls-1" d="M89.16372,115.44945l-5.77214-.02466c-.81923-.0035-1.4815-.6686-1.4815-1.48784v-11.83821c0-.79373.62306-1.4477,1.41586-1.48611l5.77214-.27964c.84899-.04113,1.55985.63612,1.55985,1.48611v12.14251c0,.8242-.67001,1.49136-1.49421,1.48784Z"/><path class="cls-1" d="M108.41157,115.53166l-6.95911-.02973c-.81923-.0035-1.4815-.6686-1.4815-1.48784v-12.79036c0-.79373.62306-1.4477,1.41586-1.48611l6.95911-.33715c.84899-.04113,1.55985.63612,1.55985,1.48611v13.15724c0,.8242-.67001,1.49136-1.49421,1.48784Z"/><path class="cls-1" d="M89.00782,145.67163l-5.77214-.63326c-.7544-.08276-1.3256-.72006-1.3256-1.47898v-11.82863c0-.855.7189-1.53409,1.57251-1.48544l5.77214.32896c.78755.04488,1.4032.69661,1.4032,1.48544v12.13293c0,.88595-.76944,1.5756-1.65011,1.47898Z"/><path class="cls-1" d="M108.25567,147.7833l-6.95911-.76348c-.7544-.08276-1.3256-.72006-1.3256-1.47898v-12.78078c0-.855.7189-1.53409,1.57251-1.48544l6.95911.3966c.78755.04488,1.4032.69661,1.4032,1.48544v13.14766c0,.88595-.76944,1.5756-1.65011,1.47898Z"/><path class="cls-1" d="M88.85713,175.86207l-5.77214-1.24186c-.68544-.14747-1.17491-.75345-1.17491-1.45457v-11.78643c0-.91692.82134-1.61561,1.7264-1.46861l5.77214.93756c.72021.11698,1.24931.73896,1.24931,1.46861v12.09073c0,.94773-.87427,1.65391-1.8008,1.45457Z"/><path class="cls-1" d="M108.10498,180.00318l-6.95911-1.49723c-.68544-.14747-1.17491-.75345-1.17491-1.45457v-12.73858c0-.91692.82134-1.61561,1.7264-1.46861l6.95911,1.13035c.72021.11698,1.24931.73896,1.24931,1.46861v13.10545c0,.94773-.87427,1.65391-1.8008,1.45457Z"/></g></svg>